<?xml version="1.0" encoding="UTF-8"?>
<svg width="752pt" height="752pt" version="1.1" viewBox="0 0 752 752" xmlns="http://www.w3.org/2000/svg">
 <g>
  <path d="m203.43 588.7h287.54c7.4688 0 14.637-2.957 19.938-8.2227l69.852-69.383c5.3477-5.3086 8.3555-12.535 8.3555-20.07v-252.48c0-22.391-18.152-40.543-40.543-40.543h-24.535v33.684c0 17.066-13.84 30.906-30.906 30.906h-2.0117c-17.074 0-30.91-13.84-30.91-30.91v-33.68h-167.57v33.68c0 17.074-13.84 30.91-30.91 30.91h-2.0078c-17.074 0-30.91-13.84-30.91-30.91v-33.68h-25.379c-22.391 0-40.543 18.152-40.543 40.543v309.62c0 22.387 18.152 40.539 40.539 40.539zm300.27-32.227v-43.934c0-8.3672 6.8086-15.172 15.172-15.172h40.988zm60.043-249.81v165.33h-44.871c-22.359 0-40.543 18.191-40.543 40.543v50.793h-274.89c-8.3633 0-15.172-6.8047-15.172-15.168l-0.003907-241.5z"/>
  <path d="m249.57 416.41h47.094c10.172 0 18.422-11.191 18.422-25v-25.934c0-13.805-8.25-25-18.422-25h-47.094c-10.172 0-18.422 11.191-18.422 25v25.934c0 13.812 8.25 25 18.422 25z"/>
  <path d="m352.88 416.41h47.09c10.176 0 18.422-11.191 18.422-25v-25.934c0-13.805-8.25-25-18.422-25h-47.09c-10.176 0-18.422 11.191-18.422 25v25.934c0 13.812 8.25 25 18.422 25z"/>
  <path d="m456.18 416.41h47.094c10.172 0 18.422-11.191 18.422-25v-25.934c0-13.805-8.25-25-18.422-25h-47.094c-10.172 0-18.422 11.191-18.422 25v25.934c0 13.812 8.25 25 18.422 25z"/>
  <path d="m249.57 518.63h47.094c10.172 0 18.422-11.191 18.422-25v-25.934c0-13.809-8.25-25-18.422-25h-47.094c-10.172 0-18.422 11.191-18.422 25v25.934c0 13.805 8.25 25 18.422 25z"/>
  <path d="m352.88 518.63h47.09c10.176 0 18.422-11.191 18.422-25v-25.934c0-13.809-8.25-25-18.422-25h-47.09c-10.176 0-18.422 11.191-18.422 25v25.934c0 13.805 8.25 25 18.422 25z"/>
  <path d="m259.72 249.31h2.0078c9.7227 0 17.633-7.9102 17.633-17.633v-50.746c0-9.7227-7.9102-17.633-17.633-17.633h-2.0078c-9.7227 0-17.633 7.9102-17.633 17.633v50.75c0 9.7227 7.9102 17.629 17.633 17.629z"/>
  <path d="m491.11 249.31h2.0078c9.7227 0 17.633-7.9102 17.633-17.633v-50.746c0-9.7227-7.9102-17.633-17.633-17.633h-2.0078c-9.7227 0-17.633 7.9102-17.633 17.633v50.75c0.003906 9.7227 7.9102 17.629 17.633 17.629z"/>
 </g>
</svg>
